<?xml version="1.0" encoding="utf-8"?>
<!-- Svg Vector Icons : http://www.onlinewebfonts.com/icon -->
<!DOCTYPE svg PUBLIC "-//W3C//DTD SVG 1.1//EN" "http://www.w3.org/Graphics/SVG/1.1/DTD/svg11.dtd">
<svg version="1.1" xmlns="http://www.w3.org/2000/svg" xmlns:xlink="http://www.w3.org/1999/xlink" x="0px" y="0px" viewBox="0 0 1000 1000" enable-background="new 0 0 1000 1000" xml:space="preserve">
<metadata> Svg Vector Icons : http://www.onlinewebfonts.com/icon </metadata>
<g><g transform="translate(0.000000,365.000000) scale(0.100000,-0.100000)"><path d="M771.4,2119.9c-357.1-94.1-608.6-391.7-652.7-773.7c-25-216.9-25-5218,0-5411.9c36.5-284.1,213.1-547.1,453.1-675.8c216.9-117.1-42.2-111.3,4442.4-111.3c4484.6,0,4225.4-5.8,4442.4,111.3c149.7,80.6,293.7,236.1,374.4,405.1l69.1,145.9v2841.3v2841.3l-69.1,145.9c-122.9,257.2-364.8,447.3-629.7,497.2c-67.2,11.5-1532,19.2-4204.3,17.3C1201.5,2152.5,886.6,2150.6,771.4,2119.9z M4803,958.4V125.2l-153.6-32.6c-343.6-73-700.7-316.8-896.5-610.5c-420.4-635.4-291.8-1489.7,295.7-1956.3c209.3-165.1,380.1-241.9,702.6-312.9l51.8-11.5v-844.7V-4488H2841H877l-96,46.1c-113.3,51.8-205.4,138.2-264.9,249.6c-40.3,74.9-42.2,103.7-48,631.6l-5.8,551h643.1h645v1660.6V311.5h-645H462.4l5.8,552.9c5.8,527.9,7.7,554.8,48,627.8c72.9,130.5,186.2,234.2,303.3,274.5c38.4,13.4,704.6,21.1,2021.5,21.1l1962,1.9V958.4z M9260.7,1745.5c94.1-48,197.7-151.7,251.5-249.6c40.3-76.8,42.2-103.7,48-631.6l5.8-552.9h-643.1h-645v-1660.6v-1660.6h643.1H9564v-518.3c0-468.4-3.8-526-38.4-618.2c-46.1-124.8-151.7-238.1-278.4-295.7l-96-46.1H7160.5H5167.7v850.5v848.5l140.1,32.6c74.9,19.2,220.8,74.9,320.6,122.9c151.7,76.8,207.3,117.1,355.2,264.9c197.7,199.7,276.4,324.5,360.9,562.5c76.8,218.8,94.1,551,42.2,787.1C6269.7-487.2,5851.2-53.3,5321.3,79.2l-144,36.5l-5.8,837l-3.8,837l2010-3.8C9084.1,1780.1,9193.5,1778.2,9260.7,1745.5z M1405-1358.8v-1305.4H934.6H464.3v1305.4V-53.3h470.3H1405V-1358.8z M9564-1358.8v-1305.4l-464.6,3.8l-466.5,5.8l-5.8,1301.6l-3.8,1299.7h470.4H9564V-1358.8z M4803-1339.6c0-602.8-7.7-1094.3-15.4-1094.3c-9.6,0-63.4,13.4-121,30.7c-345.6,101.7-627.8,368.6-748.7,710.3c-57.6,159.3-71,455-26.9,622c96,370.5,382,675.8,737.2,789C4824.1-220.3,4803-97.5,4803-1339.6z M5306-283.7c144-44.2,324.4-155.5,437.7-268.8c336-336,418.5-850.5,205.4-1284.3c-119-245.7-408.9-485.7-679.6-566.3l-101.8-28.8v1094.3c0,600.9,3.8,1092.4,7.7,1092.4C5179.3-245.3,5238.8-262.6,5306-283.7z"/></g></g>
</svg>